<svg width="309" height="94" viewBox="0 0 309 94" fill="none" xmlns="http://www.w3.org/2000/svg">
<g filter="url(#filter0_g_48_5)">
<path fill-rule="evenodd" clip-rule="evenodd" d="M235.811 32.2243C241.099 31.5255 246.447 32.9815 250.651 36.265C259.22 42.8631 260.767 55.6562 254.172 64.1838C251.717 67.408 248.33 69.7991 244.471 71.0324C243.354 71.4084 242.206 71.6793 241.039 71.8411C235.785 72.5067 230.482 71.0646 226.289 67.83C223.096 65.3487 220.734 61.9539 219.517 58.0971C219.178 57.0557 218.952 56.1291 218.781 55.0423C218.759 54.9007 218.745 54.6888 218.729 54.4601C218.701 54.0526 218.669 53.5921 218.584 53.3821V50.6249C218.66 50.474 218.701 49.9342 218.735 49.4839C218.753 49.2414 218.769 49.0249 218.788 48.9088C218.838 48.6051 218.905 48.2801 218.969 47.9734C219.554 45.1713 220.715 42.5215 222.378 40.1917C222.521 39.9915 222.694 39.7885 222.868 39.5832C223.021 39.4029 223.176 39.2209 223.313 39.0374C223.513 39.0613 223.713 39.0862 223.914 39.1112C224.757 39.2158 225.612 39.3219 226.448 39.37C226.805 39.3927 227.162 39.4029 227.52 39.4132C228.336 39.4366 229.151 39.46 229.953 39.6307C230.07 39.6591 230.192 39.6862 230.315 39.7137C230.637 39.7856 230.972 39.8602 231.267 39.9675C231.434 40.0278 231.597 40.0879 231.758 40.1469C232.846 40.5469 233.834 40.91 235.027 41.1141C235.024 41.0965 235.021 41.0776 235.017 41.0575C234.971 40.7957 234.891 40.3378 234.95 40.1258C235.235 39.1544 235.945 38.4162 236.652 37.6808C237.121 37.1923 237.59 36.705 237.932 36.1515C238.407 35.3826 237.744 34.7143 237.163 34.1292C237.017 33.9819 236.876 33.8398 236.759 33.7028C236.489 33.3877 236.249 33.0482 236.042 32.6888C236.03 32.6677 236.017 32.6451 236.003 32.6216C235.93 32.4971 235.84 32.3442 235.811 32.2243ZM235.379 43.6362L235.365 43.6392C234.571 43.8151 233.701 44.0078 233.613 42.8331C233.606 42.7309 233.604 42.6218 233.603 42.5099C233.598 42.0904 233.593 41.6317 233.251 41.3484C232.474 40.704 231.075 41.2577 231.162 42.3311C231.187 42.6491 231.436 42.9908 231.676 43.32C231.805 43.4963 231.93 43.6689 232.018 43.8325L232.002 43.8647C231.945 43.982 231.887 44.1029 231.808 44.2064C231.751 44.2824 231.68 44.3589 231.608 44.4374C231.368 44.6979 231.108 44.9805 231.229 45.3394C231.432 45.9441 232.111 46.5209 232.673 46.7876C233.458 47.1606 234.157 47.1059 234.879 47.0493C235.876 46.9713 236.917 46.8898 238.294 47.9208C238.89 48.3671 239.388 48.9951 239.64 49.6995C239.956 50.5819 239.93 51.4947 239.521 52.3443C239.049 53.3256 238.303 53.654 237.498 54.0085C236.628 54.3918 235.689 54.8056 234.95 56.1082C234.746 56.4676 234.59 56.8332 234.515 57.2408C234.465 57.5158 234.443 57.8532 234.42 58.2146C234.346 59.3775 234.256 60.7875 233.141 61.1567C232.82 61.2631 232.493 61.2073 232.197 61.056C231.491 60.6959 230.852 59.959 230.615 59.2021C230.532 58.9368 230.485 58.6186 230.623 58.3619C230.703 58.2128 230.836 58.1008 230.973 58.006C231.152 58.0361 231.314 58.0746 231.466 58.1111C231.886 58.2114 232.239 58.2956 232.7 58.1423C233.201 57.5012 233.339 56.9554 232.653 56.3921C232.207 56.0262 231.67 56.0875 231.13 56.1489C230.68 56.2002 230.229 56.2516 229.829 56.0549C229.323 55.7475 229.148 55.2158 228.969 54.6742C228.761 54.042 228.549 53.3963 227.8 53.0779C226.696 52.6084 225.556 53.2928 225.657 54.5116C225.71 55.1594 226.164 55.3811 226.613 55.5996C227.001 55.7888 227.384 55.9757 227.497 56.4351C227.557 56.6678 227.37 56.935 227.178 57.208C226.89 57.6196 226.592 58.0445 227.118 58.3848C227.198 58.4356 227.281 58.4811 227.367 58.5212C227.391 58.5188 227.418 58.5159 227.447 58.5127L227.501 58.5066C227.857 58.4664 228.441 58.4002 228.624 58.6095C228.906 58.9304 228.971 59.3346 229.039 59.752C229.104 60.1514 229.171 60.5629 229.431 60.9248C230.99 63.0973 233.905 64.4064 236.461 64.9426C237.793 65.1909 239.048 65.1331 240.324 65.0743L240.437 65.0691C240.45 65.0962 240.462 65.124 240.474 65.1522L240.491 65.1889C240.529 65.2749 240.567 65.3629 240.606 65.4429L240.625 65.4764L240.634 65.4931L240.637 65.4971L240.659 65.5371L240.688 65.5894C240.981 66.1082 241.45 66.9412 241.343 67.4884C241.312 67.6452 241.132 67.8082 240.962 67.9624C240.785 68.1234 240.618 68.2748 240.642 68.3993C240.75 68.4503 240.888 68.4091 240.995 68.3668C242.978 67.5842 242.433 66.6343 241.772 65.4821C241.66 65.2866 241.545 65.0852 241.438 64.8779C244.476 64.3303 247.509 62.2248 249.236 59.685C250.268 58.1678 251.551 55.4834 251.213 53.6218C251.065 52.8223 250.609 52.113 249.942 51.647C249.493 51.3371 249.082 51.2007 248.556 51.0882C248.17 51.2073 247.88 51.3301 247.691 51.7005C247.295 52.4858 247.751 52.8148 248.248 53.1738C248.38 53.2688 248.514 53.3658 248.636 53.4739C249.189 53.9626 248.941 54.9524 248.202 55.1831C247.366 55.4437 247.061 54.9389 246.749 54.4216C246.42 53.8773 246.082 53.3193 245.11 53.6251C244.5 53.8183 243.991 54.2462 243.696 54.8146C242.947 56.2573 244.587 57.0623 245.741 57.2305C245.907 57.2546 246.093 57.2635 246.286 57.2728C246.964 57.3054 247.722 57.3418 247.943 58.0601C248.272 59.1293 247.004 60.2296 246.115 60.5211C246.024 60.5506 245.931 60.5767 245.837 60.5995C245.469 60.2304 245.551 59.968 245.649 59.6547C245.732 59.3902 245.826 59.0896 245.67 58.658C245.411 58.4326 245.133 58.1989 244.765 58.2285C244.537 58.247 244.341 58.3851 244.199 58.5582C244.122 58.6514 244.052 58.7738 243.979 58.9008C243.807 59.1993 243.621 59.5235 243.303 59.5547C243.042 59.5802 242.734 59.5781 242.523 59.4018C242.297 59.2132 242.244 58.8474 242.188 58.4571C242.084 57.7346 241.968 56.9285 240.717 57.0087C240.121 57.05 239.565 57.3258 239.172 57.7757C238.331 58.751 238.642 59.6469 239.546 60.3861C239.573 60.4079 239.6 60.4291 239.628 60.4497C239.706 60.9433 239.701 61.6302 239.051 61.7101C237.974 61.8393 237.265 60.2671 237.186 59.4041C237.078 58.1438 237.773 56.7664 238.952 56.2415C239.352 56.0633 239.974 55.919 240.378 55.9014C241.745 55.8421 241.977 55.2076 242.259 54.432C242.397 54.0538 242.547 53.6421 242.847 53.2472C243.222 52.7537 243.848 52.627 244.476 52.5002C245.2 52.3537 245.925 52.207 246.264 51.4945C246.719 50.6781 246.337 50.0947 245.918 49.455C245.827 49.3159 245.734 49.1741 245.647 49.0267C245.098 48.0898 244.933 47.1391 245.141 46.063C245.234 45.5782 245.488 45.1302 245.738 44.6892C246.146 43.9689 246.543 43.2673 246.214 42.4549C245.829 41.5034 245.222 41.6502 244.519 41.8201C244.369 41.8564 244.215 41.8937 244.057 41.9216C243.96 41.7301 243.878 41.5571 243.819 41.3492C243.778 41.2049 243.747 41.0536 243.717 40.9038C243.591 40.2787 243.469 39.6767 242.631 39.6993C242.372 39.8016 242.127 39.9123 242.022 40.1895C241.905 40.5 241.986 40.8143 242.068 41.1306C242.12 41.3339 242.173 41.538 242.173 41.7423C242.174 42.0844 242.12 42.4161 242.067 42.7455C241.981 43.2796 241.895 43.8074 242.043 44.3625C242.193 44.9296 242.489 45.3844 242.795 45.8563C242.879 45.9856 242.964 46.1162 243.047 46.2508C244.073 47.9176 243.605 49.5898 242.335 50.9445C242.279 49.3981 242.162 48.6937 240.999 47.5337C240.455 46.9441 239.792 46.7634 239.123 46.5811C238.55 46.4249 237.973 46.2676 237.464 45.8513C237.167 45.6086 236.986 45.1738 236.809 44.7483C236.545 44.1104 236.289 43.4934 235.661 43.5761C235.569 43.5941 235.474 43.615 235.379 43.6362ZM227.902 44.7533C228.727 44.8214 229.166 45.2637 229.673 45.8611C230.289 46.5859 230.547 47.5497 230.44 48.4885C230.422 48.6398 230.4 48.7914 230.377 48.9427C230.254 49.7722 230.132 50.5915 230.744 51.3002C231.276 51.9151 231.889 52.109 232.684 52.1062C233.385 52.1037 234.009 52.1342 234.554 52.6496C235.043 53.1117 235.185 53.7218 234.692 54.2474C234.292 54.6669 233.646 54.6647 233.107 54.6629L233.075 54.6628C231.204 54.5886 229.739 54.0455 228.337 52.7296C227.343 51.7976 226.456 50.2068 226.368 48.8182C226.334 48.2799 226.679 48.1219 227.052 47.9508C227.159 47.9016 227.269 47.8512 227.373 47.7904C227.446 47.7477 227.623 47.5692 227.696 47.4962C227.714 47.1973 227.707 47.021 227.688 46.7208C227.044 45.9892 226.611 45.0886 227.902 44.7533ZM248.986 44.2009C249.01 44.221 249.034 44.2418 249.059 44.2633C249.238 44.8009 249.218 45.0801 248.936 45.5436C248.846 45.7087 248.72 46.0939 248.813 46.2775C249.085 46.8145 249.776 46.5495 250.201 46.3864C250.231 46.3746 250.26 46.3634 250.288 46.3531C250.544 46.4539 250.993 46.7126 250.972 46.9533C250.937 47.352 250.733 47.5981 250.571 47.7949C250.293 48.1311 250.135 48.3231 251.137 48.8857C251.707 49.2053 251.453 49.8603 251.08 50.3457C250.614 50.5856 249.97 50.6239 249.426 50.5657C247.713 50.3823 246.436 48.6621 246.742 46.9782C246.772 46.8109 246.839 46.6145 246.908 46.413C247.003 46.1317 247.103 45.8404 247.111 45.6039C247.118 45.4103 247.101 45.2488 247.086 45.0898C247.063 44.8667 247.042 44.6486 247.084 44.3537C247.386 44.0455 247.588 43.8566 248.017 43.7427C248.489 43.7748 248.661 43.9222 248.986 44.2009ZM238.529 40.2564C238.536 40.2907 238.543 40.3255 238.55 40.3609C238.679 40.5015 238.752 40.5487 238.896 40.6424C238.909 40.6503 238.921 40.6587 238.935 40.6674C239.015 40.6661 239.123 40.6524 239.242 40.6375C239.53 40.6012 239.878 40.5572 240.033 40.6646C240.376 40.9019 240.428 41.5246 240.474 42.0716C240.495 42.3257 240.515 42.5636 240.562 42.7388C240.624 42.9701 240.71 43.2021 240.794 43.4294C241.125 44.3274 241.429 45.1515 240.143 45.5625C239.757 45.5906 239.382 45.4159 239.062 45.2004C237.591 44.2226 236.701 42.6663 236.339 40.9619C236.142 40.0309 236.22 39.105 237.319 38.8922C238.272 38.9772 238.37 39.4659 238.529 40.2564ZM233.723 47.9023C235.99 47.5782 238.139 49.4931 238.073 51.7715C238.051 52.5511 237.195 53.0327 236.537 52.459C236.407 52.3083 236.312 52.1523 236.217 51.996C236.066 51.7474 235.915 51.4977 235.621 51.2665C235.184 50.9138 234.605 50.9575 234.027 51.0011C233.448 51.0448 232.87 51.0884 232.435 50.7336C231.83 50.2403 231.712 49.129 232.243 48.5339C232.655 48.0722 233.146 47.9531 233.723 47.9023Z" fill="#000000"/>
<path d="M133.109 68.7883C133.109 61.3845 129.907 55.5815 125.105 51.8462C129.04 48.5779 131.508 43.3752 131.508 36.0381V33.7702H116.967V35.171C116.967 43.0417 114.299 46.0432 109.23 46.0432H107.162V21.8307H92.5546V70.9227H107.162V57.249H109.23C115.166 57.249 118.501 62.4517 118.501 69.6554V71.0561H133.109V68.7883Z" fill="#000000"/>
<path d="M165.455 32.8364C174.459 32.8364 179.795 38.3726 179.795 48.2444V71.0561H165.922V50.8457C165.922 46.9103 164.054 44.7759 160.519 44.7759C156.717 44.7759 153.915 48.0443 153.915 52.5132V71.0561H139.975V21.8307H153.915V38.506C156.583 35.1043 160.585 32.8364 165.455 32.8364Z" fill="#000000"/>
<path d="M185.624 71.0561H199.498V50.779C199.498 46.1766 201.699 44.4424 205.234 44.4424C208.169 44.4424 210.17 45.5763 211.504 46.4434L217.174 37.0386C213.705 34.3705 208.836 32.8364 203.366 32.8364C193.895 32.8364 185.624 38.8395 185.624 51.7128V71.0561Z" fill="#000000"/>
<path d="M292.632 68.2547L288.43 58.7831C287.096 59.5835 285.562 60.384 283.161 60.384C281.026 60.384 279.625 59.3167 279.625 55.248V44.5091H290.631V33.7702H260.149V44.5091H265.752V55.3147C265.752 67.521 271.755 71.9899 280.026 71.9899C285.162 71.9899 289.364 70.7226 292.632 68.2547Z" fill="#000000"/>
<path d="M232.48 29.8814C232.643 29.8346 232.959 29.7853 233.137 29.7523C233.376 30.4379 233.842 31.4069 234.16 32.0706C234.406 32.5836 235.215 33.4684 235.334 34.0295C235.499 34.8109 234.401 36.0447 234.038 36.7262C233.493 37.7519 233.176 38.1354 233.456 39.2899C232.558 39.1371 231.55 38.4205 230.744 38.0178C230.205 37.7486 229.829 37.6418 229.249 37.5189C228.246 37.3198 225.151 37.1252 224.505 36.2857C224.446 36.0978 224.505 35.8689 224.604 35.7053C226.259 32.9761 229.565 30.8558 232.48 29.8814Z" fill="#000000"/>
<path d="M58.4616 34.0541C58.4616 37.5529 57.3102 40.4925 55.0074 42.8729C55.1032 42.8872 55.1996 42.9012 55.2966 42.9151C56.4571 43.0206 57.8286 43.0733 59.4111 43.0733C61.4683 43.0733 63.3673 42.8623 65.1081 42.4404C65.8756 42.2598 66.6141 42.031 67.3236 41.7538V32.7091H62.8135V21.7912H88.0544V32.7091H81.3287V71.0012H67.3236V52.7352C67.1138 52.7871 66.9028 52.8365 66.6906 52.8837C65.3191 53.1474 63.8685 53.2793 62.3387 53.2793C61.4188 53.2793 60.5212 53.2404 59.6457 53.1626C59.6475 53.2537 59.6484 53.3453 59.6484 53.4375C59.6484 57.9207 58.2242 61.4282 55.3757 63.9599C52.5272 66.4916 48.4918 67.7575 43.2695 67.7575C39.5243 67.7575 36.1219 67.0718 33.0624 65.7005C30.0556 64.2764 27.2335 61.9029 24.596 58.58C22.0113 55.2572 19.4793 50.6684 17 44.8139L27.4445 39.3549C29.9238 45.4204 32.2184 49.8245 34.3284 52.5672C36.4912 55.2572 38.8649 56.6021 41.4497 56.6021C43.0849 56.6021 44.3245 56.2329 45.1686 55.4945C46.0653 54.7034 46.5137 53.543 46.5137 52.0134C46.5137 50.5946 46.0424 49.2543 45.0999 47.9925C42.8253 48.5346 40.2898 48.8728 37.4934 49.007L35.9109 39.2758C38.2847 39.0648 40.1309 38.7747 41.4497 38.4055C42.7684 37.9835 43.6915 37.5088 44.219 36.9814C44.7465 36.4012 45.0103 35.7419 45.0103 35.0035C45.0103 33.9486 44.6411 33.2102 43.9025 32.7883C43.164 32.3663 42.1882 32.1553 40.9749 32.1553C39.5507 32.1553 38.0737 32.3663 36.5439 32.7883C35.0669 33.1575 33.5635 33.7377 32.0338 34.5288L28.4731 24.402C30.5304 23.3471 32.7987 22.5296 35.2779 21.9494C37.7572 21.3165 40.3683 21 43.1113 21C46.6983 21 49.6259 21.5538 51.8942 22.6614C54.1624 23.7691 55.8241 25.325 56.8791 27.3293C57.9341 29.2808 58.4616 31.5224 58.4616 34.0541Z" fill="#000000"/>
</g>
<defs>
<filter id="filter0_g_48_5" x="15.7224" y="19.7224" width="278.187" height="53.5552" filterUnits="userSpaceOnUse" color-interpolation-filters="sRGB">
<feFlood flood-opacity="0" result="BackgroundImageFix"/>
<feBlend mode="normal" in="SourceGraphic" in2="BackgroundImageFix" result="shape"/>
<feTurbulence type="fractalNoise" baseFrequency="0.78270560503005981 0.78270560503005981" numOctaves="3" seed="4285" />
<feDisplacementMap in="shape" scale="2.555239200592041" xChannelSelector="R" yChannelSelector="G" result="displacedImage" width="100%" height="100%" />
<feMerge result="effect1_texture_48_5">
<feMergeNode in="displacedImage"/>
</feMerge>
</filter>
</defs>
</svg>
